<svg version="1.1" id="Layer_1" xmlns="http://www.w3.org/2000/svg" xmlns:xlink="http://www.w3.org/1999/xlink" x="0px" y="0px"
	 width="100%" viewBox="0 0 312 312" enable-background="new 0 0 312 312" xml:space="preserve">
<path fill="#1D2230" opacity="1.000000" stroke="none" 
	d="
M313.000000,76.000000 
	C313.000000,155.333328 313.000000,234.166672 313.000000,313.000000 
	C209.000000,313.000000 105.000000,313.000000 1.000000,313.000000 
	C1.000000,209.000000 1.000000,105.000000 1.000000,1.000000 
	C105.000000,1.000000 209.000000,1.000000 313.000000,1.000000 
	C313.000000,25.833334 313.000000,50.666668 313.000000,76.000000 
M152.500000,13.999957 
	C107.675377,13.999948 62.850464,14.072216 18.026524,13.896862 
	C13.122385,13.877677 11.900049,15.420757 11.906451,20.151836 
	C12.030258,111.634132 12.034057,203.116714 11.892801,294.598969 
	C11.885119,299.574188 13.118941,301.121216 18.277067,301.112640 
	C110.759102,300.958832 203.241547,300.958374 295.723572,301.111664 
	C300.883667,301.120209 302.111450,299.572388 302.103821,294.598022 
	C301.963379,203.282394 302.001984,111.966476 301.999542,20.650633 
	C301.999359,14.019091 301.988190,14.003334 295.472809,14.002680 
	C248.148544,13.997923 200.824265,14.000028 152.500000,13.999957 
z"/>
<path fill="#2C313A" opacity="1.000000" stroke="none" 
	d="
M153.000000,13.999959 
	C200.824265,14.000028 248.148544,13.997923 295.472809,14.002680 
	C301.988190,14.003334 301.999359,14.019091 301.999542,20.650633 
	C302.001984,111.966476 301.963379,203.282394 302.103821,294.598022 
	C302.111450,299.572388 300.883667,301.120209 295.723572,301.111664 
	C203.241547,300.958374 110.759102,300.958832 18.277067,301.112640 
	C13.118941,301.121216 11.885119,299.574188 11.892801,294.598969 
	C12.034057,203.116714 12.030258,111.634132 11.906451,20.151836 
	C11.900049,15.420757 13.122385,13.877677 18.026524,13.896862 
	C62.850464,14.072216 107.675377,13.999948 153.000000,13.999959 
M14.006639,159.938812 
	C14.002793,204.265839 14.068559,248.593140 13.895468,292.919495 
	C13.876608,297.749451 15.292506,299.103088 20.095930,299.096283 
	C111.416122,298.966431 202.736572,298.974365 294.056824,299.081207 
	C298.490417,299.086395 300.107086,298.037720 300.100098,293.265930 
	C299.967438,202.778976 299.972382,112.291725 300.100159,21.804747 
	C300.106750,17.146198 298.675629,15.907244 294.130341,15.913034 
	C202.810120,16.029345 111.489655,16.031555 20.169447,15.908617 
	C15.467960,15.902287 13.824783,17.068178 13.888955,22.008163 
	C14.153010,42.335236 14.007310,62.667633 14.003363,83.935822 
	C14.006486,108.957787 14.009609,133.979752 14.006639,159.938812 
z"/>
<path fill="#1E2330" opacity="1.000000" stroke="none" 
	d="
M14.012295,82.998070 
	C14.007310,62.667633 14.153010,42.335236 13.888955,22.008163 
	C13.824783,17.068178 15.467960,15.902287 20.169447,15.908617 
	C111.489655,16.031555 202.810120,16.029345 294.130341,15.913034 
	C298.675629,15.907244 300.106750,17.146198 300.100159,21.804747 
	C299.972382,112.291725 299.967438,202.778976 300.100098,293.265930 
	C300.107086,298.037720 298.490417,299.086395 294.056824,299.081207 
	C202.736572,298.974365 111.416122,298.966431 20.095930,299.096283 
	C15.292506,299.103088 13.876608,297.749451 13.895468,292.919495 
	C14.068559,248.593140 14.002793,204.265839 14.373968,159.456146 
	C15.978476,158.865829 17.215654,158.758179 19.031332,158.600189 
	C18.686102,160.466827 18.214413,161.858612 18.211285,163.251450 
	C18.201900,167.425995 18.183723,171.681610 22.762512,174.469666 
	C22.861362,209.302994 22.888968,243.672379 22.913870,278.041748 
	C22.921993,289.254730 22.918764,289.254730 34.449066,288.930817 
	C118.973190,288.990448 203.028336,289.006012 287.083496,289.016632 
	C288.080444,289.016754 289.322662,289.307190 290.012756,288.829651 
	C290.893799,288.220001 291.328979,286.966034 291.984436,285.522461 
	C292.027466,222.996445 292.056671,160.937729 292.050110,98.879021 
	C292.047546,74.589584 291.964722,50.300171 291.628143,25.717457 
	C289.358704,25.280624 287.379578,25.012857 285.400360,25.011759 
	C239.749237,24.986404 194.098083,24.972071 148.446976,24.993629 
	C107.295868,25.013065 66.144768,25.077715 24.596561,25.191622 
	C23.768101,27.078176 22.981758,28.891548 22.961329,30.713511 
	C22.792110,45.806202 22.764545,60.900478 22.343081,76.014496 
	C20.484495,77.407600 18.995419,78.801537 17.463270,80.146393 
	C16.342274,81.130363 15.164668,82.049843 14.012295,82.998070 
z"/>
<path fill="#202331" opacity="1.000000" stroke="none" 
	d="
M22.690216,174.005692 
	C18.183723,171.681610 18.201900,167.425995 18.211285,163.251450 
	C18.214413,161.858612 18.686102,160.466827 19.031332,158.600189 
	C17.215654,158.758179 15.978476,158.865829 14.377014,158.987595 
	C14.009609,133.979752 14.006486,108.957787 14.007828,83.466949 
	C15.164668,82.049843 16.342274,81.130363 17.463270,80.146393 
	C18.995419,78.801537 20.484495,77.407600 22.418236,76.479294 
	C22.872444,87.213875 22.943245,97.503960 22.919638,107.793831 
	C22.868998,129.864517 22.769630,151.935074 22.690216,174.005692 
z"/>
<path fill="#58585F" opacity="1.000000" stroke="none" 
	d="
M22.762512,174.469666 
	C22.769630,151.935074 22.868998,129.864517 22.919638,107.793831 
	C22.943245,97.503960 22.872444,87.213875 22.769279,76.459076 
	C22.764545,60.900478 22.792110,45.806202 22.961329,30.713511 
	C22.981758,28.891548 23.768101,27.078176 24.598186,25.501633 
	C24.997017,26.157404 24.997118,26.572363 24.925705,27.358273 
	C24.885378,43.820030 24.916565,59.910839 24.932522,76.469910 
	C24.927340,108.291298 24.937387,139.644409 24.928711,171.466064 
	C24.906162,207.129440 24.894962,242.324295 24.902702,277.519135 
	C24.905247,289.090698 24.220224,286.597412 33.985573,287.384583 
	C33.986073,288.085724 33.983086,288.486084 33.980095,288.886414 
	C22.918764,289.254730 22.921993,289.254730 22.913870,278.041748 
	C22.888968,243.672379 22.861362,209.302994 22.762512,174.469666 
z"/>
<path fill="#54575E" opacity="1.000000" stroke="none" 
	d="
M24.997221,26.987322 
	C24.997118,26.572363 24.997017,26.157404 24.995293,25.432434 
	C66.144768,25.077715 107.295868,25.013065 148.446976,24.993629 
	C194.098083,24.972071 239.749237,24.986404 285.400360,25.011759 
	C287.379578,25.012857 289.358704,25.280624 291.350037,25.760406 
	C290.906677,26.405502 290.451080,26.714359 289.527405,27.019699 
	C201.038589,27.006563 113.017899,26.996943 24.997221,26.987322 
z"/>
<path fill="#595961" opacity="1.000000" stroke="none" 
	d="
M289.995514,27.023212 
	C290.451080,26.714359 290.906677,26.405502 291.640320,26.053694 
	C291.964722,50.300171 292.047546,74.589584 292.050110,98.879021 
	C292.056671,160.937729 292.027466,222.996445 291.701965,285.521851 
	C291.014099,285.983826 290.636841,285.979126 290.202881,285.510071 
	C290.128052,231.963974 290.117310,178.882202 290.089081,125.800430 
	C290.071594,92.874680 290.027588,59.948952 289.995514,27.023212 
z"/>
<path fill="#515158" opacity="1.000000" stroke="none" 
	d="
M290.259552,285.974426 
	C290.636841,285.979126 291.014099,285.983826 291.673859,285.989166 
	C291.328979,286.966034 290.893799,288.220001 290.012756,288.829651 
	C289.322662,289.307190 288.080444,289.016754 287.083496,289.016632 
	C203.028336,289.006012 118.973190,288.990448 34.449066,288.930817 
	C33.983086,288.486084 33.986073,288.085724 34.455109,287.350464 
	C117.779526,287.003052 200.637894,286.998474 283.496246,286.936127 
	C285.750916,286.934418 288.005127,286.309021 290.259552,285.974426 
z"/>
<path fill="#2C2C35" opacity="1.000000" stroke="none" 
	d="
M290.202881,285.510101 
	C288.005127,286.309021 285.750916,286.934418 283.496246,286.936127 
	C200.637894,286.998474 117.779526,287.003052 34.451614,287.049652 
	C24.220224,286.597412 24.905247,289.090698 24.902702,277.519135 
	C24.894962,242.324295 24.906162,207.129440 25.327484,171.483780 
	C30.748230,171.903656 35.680725,172.456940 35.377705,179.714981 
	C35.274490,182.187057 37.363422,184.054733 41.008080,183.691269 
	C47.923931,183.001602 57.642830,189.784073 59.942669,196.124756 
	C61.319199,199.919861 68.123878,202.856033 71.161423,200.270203 
	C74.651695,197.298965 78.239044,198.232086 81.961876,198.164871 
	C83.718826,198.133163 85.468193,197.681900 87.512543,197.516418 
	C104.610809,207.940552 121.716530,206.525116 139.162231,199.274796 
	C143.390701,197.517456 145.685272,195.480118 144.981354,190.619705 
	C144.608414,188.044693 145.084229,185.346771 145.580353,182.799286 
	C146.891586,184.376282 147.970139,185.784088 148.656052,187.362549 
	C149.264282,188.762161 149.436234,190.351379 149.791351,191.817978 
	C152.000061,188.734802 153.838150,184.511780 155.133469,184.672165 
	C158.990280,185.149719 162.557785,187.411423 161.389175,193.061172 
	C167.248474,194.082809 172.728317,195.038284 178.356583,196.406677 
	C178.590729,198.781723 178.676437,200.743851 178.761246,202.685211 
	C179.521439,202.876907 179.987305,203.096649 180.453430,203.097229 
	C200.415405,203.122269 220.377594,203.160110 240.338928,203.049774 
	C241.453110,203.043610 242.560394,201.793488 243.974594,200.824249 
	C245.362122,196.111542 245.749832,191.765106 242.631927,187.751953 
	C242.766388,189.120895 242.900848,190.489853 242.566956,191.827225 
	C237.070251,191.708099 232.041916,191.620544 226.825455,191.208939 
	C220.959763,190.589859 215.246826,189.768890 209.614502,190.147369 
	C203.951477,190.527908 200.135117,189.006775 198.251312,183.418274 
	C198.254227,183.317123 198.435974,183.228119 198.861816,183.401001 
	C206.638138,184.233856 207.999863,183.070282 207.991852,176.077911 
	C207.989761,174.258545 207.907379,172.439255 207.925934,170.296631 
	C218.900330,155.279831 229.810684,140.586319 241.042358,125.908371 
	C242.010254,125.650078 242.656830,125.376221 243.303391,125.102364 
	C242.899323,124.741760 242.495239,124.381165 242.107697,123.557922 
	C242.127579,119.379395 242.130936,115.663513 242.327789,111.752518 
	C242.680450,111.038673 242.839615,110.519951 242.740616,109.763039 
	C239.141800,108.059937 235.828064,106.708008 233.623230,111.647354 
	C232.504944,111.681618 231.753647,111.617317 230.974625,111.175919 
	C231.279190,105.758209 231.800827,100.720718 231.884109,95.675987 
	C231.951202,91.612518 231.488480,87.540291 231.260803,83.471954 
	C228.142029,84.449257 225.101852,84.779701 225.009796,84.398392 
	C224.038544,80.375404 223.537476,76.238899 222.906662,72.133728 
	C222.673279,72.766525 222.439911,73.399330 222.206528,74.032135 
	C219.254349,69.960396 216.607483,65.616463 213.277679,61.881382 
	C208.405273,56.415962 202.450424,52.894093 194.668503,52.861912 
	C191.831604,52.850182 188.865616,51.610455 186.200150,50.399231 
	C182.448029,48.694237 179.139862,47.758545 175.877472,51.367905 
	C175.012497,52.324886 173.268127,52.868671 171.899185,52.926048 
	C163.498901,53.278126 156.261856,56.973454 149.024902,60.657719 
	C146.854889,61.762444 144.102707,62.757664 142.957825,64.624985 
	C140.634338,68.414665 137.343597,69.049385 133.606934,68.941406 
	C130.973206,68.865295 128.352692,68.318985 125.727142,67.975952 
	C121.749619,67.456276 121.344971,65.416977 123.060852,62.234058 
	C124.979446,62.782326 126.598625,63.245029 128.217804,63.707733 
	C128.555099,63.395782 128.892410,63.083828 129.229706,62.771873 
	C128.167007,60.954628 127.491562,58.183422 125.945877,57.555969 
	C123.906433,56.728073 120.527077,56.673264 118.870247,57.871468 
	C111.983521,62.851913 112.011421,63.062649 107.064789,56.618088 
	C108.177582,52.874298 109.068619,49.284454 104.369537,48.237419 
	C100.682198,47.415821 96.804428,47.346729 93.002274,47.225723 
	C92.208038,47.200447 91.374390,48.413177 90.558907,49.055401 
	C91.242966,49.661221 91.836021,50.565022 92.630951,50.807770 
	C94.067406,51.246414 95.624443,51.290157 97.131134,51.498810 
	C97.095009,51.939568 97.058884,52.380325 97.022766,52.821087 
	C89.749245,52.453434 82.475723,52.085781 74.862717,51.700966 
	C75.004822,45.316132 69.905960,47.455757 66.590492,46.817417 
	C65.601646,46.627033 64.342224,47.841969 63.206772,48.413025 
	C64.020416,49.495594 64.622269,50.954197 65.702850,51.562820 
	C66.971573,52.277409 68.656219,52.253540 70.715523,52.659309 
	C67.337776,53.953953 64.668770,54.976948 61.573288,55.999950 
	C58.208103,56.741341 54.871342,56.844551 52.422802,58.371792 
	C48.630154,60.737396 45.443592,64.074707 41.779831,66.757339 
	C41.443871,66.042740 41.385555,65.547073 41.202076,65.103134 
	C40.539158,63.499172 39.834148,61.912617 39.145027,60.319489 
	C38.094170,61.377552 37.061420,62.454361 35.989140,63.490246 
	C32.410297,66.947624 32.566490,71.587234 31.560577,76.000000 
	C29.063406,76.000549 27.005579,76.001099 24.947752,76.001648 
	C24.916565,59.910839 24.885378,43.820030 24.925705,27.358273 
	C113.017899,26.996943 201.038589,27.006563 289.527405,27.019695 
	C290.027588,59.948952 290.071594,92.874680 290.089081,125.800430 
	C290.117310,178.882202 290.128052,231.963974 290.202881,285.510101 
z"/>
<path fill="#2D2D35" opacity="1.000000" stroke="none" 
	d="
M42.000046,67.000000 
	C45.443592,64.074707 48.630154,60.737396 52.422802,58.371792 
	C54.871342,56.844551 58.208103,56.741341 61.903831,56.250237 
	C64.465126,56.667007 66.268959,56.972027 68.073746,56.977795 
	C81.048958,57.019260 94.024353,56.999996 106.999695,57.000000 
	C112.011421,63.062649 111.983521,62.851913 118.870247,57.871468 
	C120.527077,56.673264 123.906433,56.728073 125.945877,57.555969 
	C127.491562,58.183422 128.167007,60.954628 129.229706,62.771873 
	C128.892410,63.083828 128.555099,63.395782 128.217804,63.707733 
	C126.598625,63.245029 124.979446,62.782326 123.060852,62.234058 
	C121.344971,65.416977 121.749619,67.456276 125.727142,67.975952 
	C128.352692,68.318985 130.973206,68.865295 133.606934,68.941406 
	C137.343597,69.049385 140.634338,68.414665 142.957825,64.624985 
	C144.102707,62.757664 146.854889,61.762444 149.024902,60.657719 
	C156.261856,56.973454 163.498901,53.278126 171.899185,52.926048 
	C173.268127,52.868671 175.012497,52.324886 175.877472,51.367905 
	C179.139862,47.758545 182.448029,48.694237 186.200150,50.399231 
	C188.865616,51.610455 191.831604,52.850182 194.668503,52.861912 
	C202.450424,52.894093 208.405273,56.415962 213.277679,61.881382 
	C216.607483,65.616463 219.254349,69.960396 222.206528,74.032135 
	C222.439911,73.399330 222.673279,72.766525 222.906662,72.133728 
	C223.537476,76.238899 224.038544,80.375404 225.009796,84.398392 
	C225.101852,84.779701 228.142029,84.449257 231.260803,83.471954 
	C231.488480,87.540291 231.951202,91.612518 231.884109,95.675987 
	C231.800827,100.720718 231.279190,105.758209 230.529358,111.275375 
	C227.078171,111.688454 224.044525,111.624977 220.900940,111.278038 
	C218.605331,108.599823 216.665970,108.736816 214.661652,111.652740 
	C213.891785,111.683777 213.448105,111.621239 212.882080,111.260948 
	C210.853882,109.556412 208.948013,108.149612 207.042160,106.742821 
	C207.151520,106.220299 207.260864,105.697777 207.370224,105.175255 
	C209.533966,105.175255 211.748306,105.462471 213.846909,105.092728 
	C215.858719,104.738266 219.390930,103.759506 219.419067,102.955818 
	C219.562759,98.851616 218.803726,94.713264 218.276672,90.597580 
	C218.255905,90.435402 217.373474,90.415756 216.910034,90.272881 
	C213.637711,89.264008 210.369980,88.240257 207.100784,87.221252 
	C206.952026,86.765076 206.803284,86.308899 206.654541,85.852722 
	C208.230240,84.977562 209.805939,84.102402 211.832489,82.976837 
	C207.843185,79.623306 204.796524,76.951958 201.624176,74.439301 
	C199.893066,73.068169 197.724365,72.202179 196.142822,70.698402 
	C191.245712,66.042068 184.108139,64.048813 178.900818,67.929108 
	C175.087387,70.770706 167.266037,71.606590 169.664246,79.732666 
	C169.793365,80.170158 169.085876,80.847527 168.782532,81.420998 
	C167.835251,83.211899 166.504150,84.908699 166.026138,86.818275 
	C164.653503,92.301796 159.916702,94.292580 155.442474,91.055977 
	C154.643951,90.478340 153.745636,89.950203 152.812119,89.669319 
	C151.555740,89.291275 150.220474,89.175430 148.919067,88.947044 
	C148.848282,90.496887 148.644852,92.056976 148.763458,93.592186 
	C148.821533,94.344139 149.963181,95.214195 149.782089,95.748909 
	C148.850037,98.501122 147.761520,101.219490 146.448425,103.808060 
	C146.171402,104.354195 144.725998,104.307655 143.818939,104.534210 
	C143.376282,102.725739 142.954254,100.911659 142.465851,99.115639 
	C142.402084,98.881180 141.997009,98.739540 141.235062,98.169960 
	C139.593521,101.438644 133.710770,101.884621 135.677612,106.589508 
	C133.547943,108.526718 131.774841,110.139595 129.610046,111.791649 
	C127.156906,111.422516 125.095482,111.014206 122.933914,110.380829 
	C122.493698,109.799751 122.153625,109.443748 122.120148,108.923813 
	C127.818832,104.740036 128.014572,104.539246 123.266869,99.911110 
	C120.330215,97.048393 121.488327,94.425880 123.472328,92.597260 
	C126.733368,89.591583 125.570412,87.663567 122.945801,85.413872 
	C121.813904,84.443665 120.954567,83.138924 119.774689,82.246155 
	C118.709625,81.440277 117.376289,80.988937 116.161270,80.381248 
	C115.526741,81.674500 114.466034,82.933563 114.358910,84.269112 
	C114.203522,86.206299 115.193336,88.289017 114.827530,90.138107 
	C114.551201,91.534920 113.026161,93.518204 111.856979,93.666710 
	C110.723900,93.810638 109.184433,92.088165 108.094406,90.930313 
	C106.395256,89.125404 105.248726,86.631165 103.281639,85.287430 
	C100.365974,83.295700 97.901123,82.040253 100.963318,78.016212 
	C101.725182,77.015045 100.428116,74.076965 99.499825,72.337402 
	C99.115189,71.616623 96.367912,71.172279 96.149132,71.519188 
	C95.242645,72.956604 94.779549,74.717972 94.379723,76.413696 
	C94.145386,77.407547 94.336983,78.501831 94.336983,80.463722 
	C91.524467,78.812721 89.379143,77.553375 87.230484,76.292068 
	C88.231598,74.267960 89.734077,72.672432 89.527824,71.341774 
	C89.120094,68.711266 87.880692,66.172325 86.700562,63.733219 
	C86.487579,63.293022 84.555862,63.069416 84.022537,63.498188 
	C80.332176,66.465080 76.802002,69.631218 72.921494,72.992241 
	C68.991180,69.519753 63.705681,70.680717 58.547253,71.997093 
	C56.991707,72.394051 55.721630,73.909653 54.320786,74.912819 
	C55.233711,76.128456 56.176548,77.323090 57.049431,78.566833 
	C57.668705,79.449219 58.720802,80.477905 58.597214,81.292175 
	C58.494423,81.969460 56.966316,82.439232 56.059414,82.984047 
	C52.896564,84.884117 49.806805,86.927185 46.533901,88.614555 
	C44.650124,89.585747 42.504948,90.266533 40.407360,90.539421 
	C38.657967,90.767014 36.806526,90.210266 34.832527,89.727806 
	C30.159540,87.767097 31.382473,91.810692 31.185387,93.426613 
	C30.515661,98.917725 30.355223,104.470947 29.750742,110.329445 
	C29.463228,115.277115 28.513235,120.125618 29.605335,124.459526 
	C31.165216,130.649780 34.423100,136.391235 36.577152,142.458786 
	C38.562393,148.050827 43.974625,152.165115 43.517624,158.824112 
	C43.473652,159.464813 44.697567,160.192535 44.902130,160.413834 
	C47.150906,159.686951 48.883179,159.127029 50.615456,158.567108 
	C50.829296,160.067032 51.000290,161.574860 51.274406,163.063690 
	C51.419296,163.850632 51.687168,164.628113 51.996315,165.369507 
	C53.977570,170.120926 55.659992,175.070847 60.117725,178.257843 
	C61.741230,179.418549 64.068413,181.828964 64.901695,181.398560 
	C66.666931,180.486771 67.741753,178.134186 68.944565,176.272232 
	C69.829437,174.902466 70.468033,173.373596 71.562531,172.095856 
	C73.446327,176.452469 74.983978,180.628845 76.277321,184.992599 
	C76.528374,185.733200 77.023735,186.286438 77.766754,187.032104 
	C79.782501,189.548218 81.550583,191.871902 83.284218,194.520508 
	C83.868721,195.142578 84.487679,195.439758 85.439728,195.841599 
	C86.255539,196.437759 86.738274,196.929245 87.221001,197.420731 
	C85.468193,197.681900 83.718826,198.133163 81.961876,198.164871 
	C78.239044,198.232086 74.651695,197.298965 71.161423,200.270203 
	C68.123878,202.856033 61.319199,199.919861 59.942669,196.124756 
	C57.642830,189.784073 47.923931,183.001602 41.008080,183.691269 
	C37.363422,184.054733 35.274490,182.187057 35.377705,179.714981 
	C35.680725,172.456940 30.748230,171.903656 25.346209,171.015244 
	C24.937387,139.644409 24.927340,108.291298 24.932522,76.469910 
	C27.005579,76.001099 29.063406,76.000549 31.497379,76.376114 
	C31.605268,78.761017 29.399269,81.680450 33.723640,81.762199 
	C40.994110,81.899658 43.541168,79.079155 42.955372,71.848778 
	C42.823204,70.217430 42.328083,68.615479 42.000046,67.000000 
M153.599869,74.010948 
	C150.443878,76.729019 149.973938,79.533539 153.502991,83.043228 
	C155.928741,80.119301 158.141357,77.452286 161.014359,73.989288 
	C158.245895,73.820427 156.237503,73.697929 153.599869,74.010948 
M226.727524,90.723267 
	C226.606827,92.658249 226.486130,94.593231 226.365433,96.528214 
	C229.671707,92.865273 229.574463,91.626564 226.727524,90.723267 
M184.710159,61.399891 
	C184.626907,60.678028 184.543640,59.956165 184.460373,59.234303 
	C183.790085,59.520519 183.119797,59.806736 182.449509,60.092957 
	C183.011703,60.617451 183.573914,61.141945 184.710159,61.399891 
M226.744308,102.754845 
	C226.662552,103.571068 226.580780,104.387291 226.499023,105.203522 
	C226.881531,105.186867 227.264023,105.170219 227.646530,105.153564 
	C227.534256,104.358459 227.421982,103.563347 226.744308,102.754845 
M67.789154,196.687164 
	C68.472473,197.008301 69.153282,197.335693 69.852936,197.616089 
	C69.871277,197.623428 70.095001,197.118225 70.222939,196.852066 
	C69.545296,196.669495 68.867645,196.486938 67.789154,196.687164 
M145.228546,81.580772 
	C145.054855,81.827698 144.881180,82.074623 144.707504,82.321564 
	C144.964676,82.163628 145.221832,82.005699 145.228546,81.580772 
M135.771439,91.419266 
	C135.945114,91.172333 136.118790,90.925400 136.292465,90.678459 
	C136.035294,90.836395 135.778122,90.994331 135.771439,91.419266 
z"/>
<path fill="#303038" opacity="1.000000" stroke="none" 
	d="
M130.001740,111.752472 
	C131.774841,110.139595 133.547943,108.526718 135.677612,106.589508 
	C133.710770,101.884621 139.593521,101.438644 141.235062,98.169960 
	C141.997009,98.739540 142.402084,98.881180 142.465851,99.115639 
	C142.954254,100.911659 143.376282,102.725739 143.818939,104.534210 
	C144.725998,104.307655 146.171402,104.354195 146.448425,103.808060 
	C147.761520,101.219490 148.850037,98.501122 149.782089,95.748909 
	C149.963181,95.214195 148.821533,94.344139 148.763458,93.592186 
	C148.644852,92.056976 148.848282,90.496887 148.919067,88.947044 
	C150.220474,89.175430 151.555740,89.291275 152.812119,89.669319 
	C153.745636,89.950203 154.643951,90.478340 155.442474,91.055977 
	C159.916702,94.292580 164.653503,92.301796 166.026138,86.818275 
	C166.504150,84.908699 167.835251,83.211899 168.782532,81.420998 
	C169.085876,80.847527 169.793365,80.170158 169.664246,79.732666 
	C167.266037,71.606590 175.087387,70.770706 178.900818,67.929108 
	C184.108139,64.048813 191.245712,66.042068 196.142822,70.698402 
	C197.724365,72.202179 199.893066,73.068169 201.624176,74.439301 
	C204.796524,76.951958 207.843185,79.623306 211.832489,82.976837 
	C209.805939,84.102402 208.230240,84.977562 206.654541,85.852722 
	C206.803284,86.308899 206.952026,86.765076 207.100784,87.221252 
	C210.369980,88.240257 213.637711,89.264008 216.910034,90.272881 
	C217.373474,90.415756 218.255905,90.435402 218.276672,90.597580 
	C218.803726,94.713264 219.562759,98.851616 219.419067,102.955818 
	C219.390930,103.759506 215.858719,104.738266 213.846909,105.092728 
	C211.748306,105.462471 209.533966,105.175255 207.370224,105.175255 
	C207.260864,105.697777 207.151520,106.220299 207.042160,106.742821 
	C208.948013,108.149612 210.853882,109.556412 212.422668,111.360863 
	C201.669174,111.758522 191.252762,111.758522 180.774734,111.758522 
	C180.774734,115.900543 180.774734,119.328735 180.774734,123.325836 
	C196.440735,123.325836 211.806992,123.325836 228.087921,123.325836 
	C226.291626,125.857643 225.087845,127.598618 223.839523,129.307068 
	C209.989502,148.262314 196.049469,167.152924 182.368607,186.229431 
	C180.356171,189.035553 179.564606,192.717209 178.208145,195.993759 
	C172.728317,195.038284 167.248474,194.082809 161.389175,193.061172 
	C162.557785,187.411423 158.990280,185.149719 155.133469,184.672165 
	C153.838150,184.511780 152.000061,188.734802 149.791351,191.817978 
	C149.436234,190.351379 149.264282,188.762161 148.656052,187.362549 
	C147.970139,185.784088 146.891586,184.376282 145.459473,182.363922 
	C144.935104,173.560516 144.935104,165.287415 144.935104,156.974457 
	C133.338455,156.974457 122.444084,156.974457 111.589020,156.974457 
	C111.589020,160.905472 111.589020,164.447937 111.589020,168.564636 
	C118.935440,168.564636 125.833443,168.564636 133.131210,168.564636 
	C133.131210,173.107269 133.125702,177.073196 133.132309,181.039093 
	C133.148056,190.509079 133.150360,190.509064 123.960602,192.628937 
	C107.781578,196.361084 93.134277,190.571960 87.402023,177.625168 
	C81.530449,164.363678 81.295036,150.726837 87.173309,137.414459 
	C91.112747,128.492920 98.091202,123.073158 108.106865,121.724121 
	C119.877197,120.138733 130.063156,123.646530 139.419113,130.469986 
	C140.889709,131.542496 142.542557,132.365128 144.870880,133.757706 
	C144.870880,128.989090 144.677322,125.336014 144.932800,121.714622 
	C145.133224,118.873428 143.971161,117.491211 141.447113,116.543076 
	C137.578079,115.089714 133.811691,113.363113 130.001740,111.752472 
z"/>
<path fill="#F6F6F7" opacity="1.000000" stroke="none" 
	d="
M129.610046,111.791656 
	C133.811691,113.363113 137.578079,115.089714 141.447113,116.543076 
	C143.971161,117.491211 145.133224,118.873428 144.932800,121.714622 
	C144.677322,125.336014 144.870880,128.989090 144.870880,133.757706 
	C142.542557,132.365128 140.889709,131.542496 139.419113,130.469986 
	C130.063156,123.646530 119.877197,120.138733 108.106865,121.724121 
	C98.091202,123.073158 91.112747,128.492920 87.173309,137.414459 
	C81.295036,150.726837 81.530449,164.363678 87.402023,177.625168 
	C93.134277,190.571960 107.781578,196.361084 123.960602,192.628937 
	C133.150360,190.509064 133.148056,190.509079 133.132309,181.039093 
	C133.125702,177.073196 133.131210,173.107269 133.131210,168.564636 
	C125.833443,168.564636 118.935440,168.564636 111.589020,168.564636 
	C111.589020,164.447937 111.589020,160.905472 111.589020,156.974457 
	C122.444084,156.974457 133.338455,156.974457 144.935104,156.974457 
	C144.935104,165.287415 144.935104,173.560516 145.055984,182.268982 
	C145.084229,185.346771 144.608414,188.044693 144.981354,190.619705 
	C145.685272,195.480118 143.390701,197.517456 139.162231,199.274796 
	C121.716530,206.525116 104.610809,207.940552 87.512543,197.516418 
	C86.738274,196.929245 86.255539,196.437759 85.310028,195.562073 
	C84.337723,194.850449 83.828201,194.523026 83.318672,194.195602 
	C81.550583,191.871902 79.782501,189.548218 77.719940,186.746613 
	C77.124176,185.780869 76.822899,185.293060 76.521629,184.805237 
	C74.983978,180.628845 73.446327,176.452469 71.516899,171.653564 
	C71.026100,169.081573 70.753517,167.122665 70.858498,165.184219 
	C71.282455,157.355774 71.822807,149.533661 72.570633,141.420471 
	C73.224327,139.421158 73.627563,137.710556 74.277260,135.788651 
	C74.810730,134.768616 75.097740,133.959885 75.608353,132.960358 
	C75.960953,132.206177 76.089951,131.642822 76.485001,130.860580 
	C80.531204,122.077454 87.109032,115.630943 95.559776,112.897964 
	C103.216667,110.421722 111.815071,110.856735 120.262054,110.193695 
	C121.361855,110.454803 122.197952,110.530350 123.034050,110.605896 
	C125.095482,111.014206 127.156906,111.422516 129.610046,111.791656 
z"/>
<path fill="#FAFAFA" opacity="1.000000" stroke="none" 
	d="
M178.356583,196.406677 
	C179.564606,192.717209 180.356171,189.035553 182.368607,186.229431 
	C196.049469,167.152924 209.989502,148.262314 223.839523,129.307068 
	C225.087845,127.598618 226.291626,125.857643 228.087921,123.325836 
	C211.806992,123.325836 196.440735,123.325836 180.774734,123.325836 
	C180.774734,119.328735 180.774734,115.900543 180.774734,111.758522 
	C191.252762,111.758522 201.669174,111.758522 212.545013,111.658607 
	C213.448105,111.621239 213.891785,111.683777 215.083527,111.752701 
	C217.558014,111.693230 219.284454,111.627365 221.010880,111.561501 
	C224.044525,111.624977 227.078171,111.688454 230.557098,111.652466 
	C231.753647,111.617317 232.504944,111.681618 234.052460,111.746567 
	C236.896362,111.686096 238.944031,111.624992 241.266754,111.691345 
	C241.739319,111.861755 241.936813,111.904694 242.134293,111.947639 
	C242.130936,115.663513 242.127579,119.379395 241.833817,123.695480 
	C241.269287,124.828064 240.995163,125.360443 240.721039,125.892822 
	C229.810684,140.586319 218.900330,155.279831 207.620438,170.465729 
	C204.312576,175.048111 201.374268,179.138107 198.435974,183.228119 
	C198.435974,183.228119 198.254227,183.317123 197.994110,183.613647 
	C196.042191,186.235184 194.350418,188.560211 192.187302,191.533005 
	C204.439087,191.533005 215.726334,191.533005 227.013565,191.533005 
	C232.041916,191.620544 237.070251,191.708099 242.662018,192.259705 
	C243.373932,195.523270 243.522400,198.322815 243.670883,201.122345 
	C242.560394,201.793488 241.453110,203.043610 240.338928,203.049774 
	C220.377594,203.160110 200.415405,203.122269 180.453430,203.097229 
	C179.987305,203.096649 179.521439,202.876907 178.761246,202.685211 
	C178.676437,200.743851 178.590729,198.781723 178.356583,196.406677 
z"/>
<path fill="#2D2D37" opacity="1.000000" stroke="none" 
	d="
M107.064789,56.618088 
	C94.024353,56.999996 81.048958,57.019260 68.073746,56.977795 
	C66.268959,56.972027 64.465126,56.667007 62.330307,56.250229 
	C64.668770,54.976948 67.337776,53.953953 70.715523,52.659309 
	C68.656219,52.253540 66.971573,52.277409 65.702850,51.562820 
	C64.622269,50.954197 64.020416,49.495594 63.206772,48.413025 
	C64.342224,47.841969 65.601646,46.627033 66.590492,46.817417 
	C69.905960,47.455757 75.004822,45.316132 74.862717,51.700966 
	C82.475723,52.085781 89.749245,52.453434 97.022766,52.821087 
	C97.058884,52.380325 97.095009,51.939568 97.131134,51.498810 
	C95.624443,51.290157 94.067406,51.246414 92.630951,50.807770 
	C91.836021,50.565022 91.242966,49.661221 90.558907,49.055401 
	C91.374390,48.413177 92.208038,47.200447 93.002274,47.225723 
	C96.804428,47.346729 100.682198,47.415821 104.369537,48.237419 
	C109.068619,49.284454 108.177582,52.874298 107.064789,56.618088 
z"/>
<path fill="#2D2D37" opacity="1.000000" stroke="none" 
	d="
M41.779831,66.757339 
	C42.328083,68.615479 42.823204,70.217430 42.955372,71.848778 
	C43.541168,79.079155 40.994110,81.899658 33.723640,81.762199 
	C29.399269,81.680450 31.605268,78.761017 31.936724,76.376114 
	C32.566490,71.587234 32.410297,66.947624 35.989140,63.490246 
	C37.061420,62.454361 38.094170,61.377552 39.145027,60.319489 
	C39.834148,61.912617 40.539158,63.499172 41.202076,65.103134 
	C41.385555,65.547073 41.443871,66.042740 41.779831,66.757339 
z"/>
<path fill="#303038" opacity="1.000000" stroke="none" 
	d="
M226.825455,191.208939 
	C215.726334,191.533005 204.439087,191.533005 192.187302,191.533005 
	C194.350418,188.560211 196.042191,186.235184 197.991196,183.714783 
	C200.135117,189.006775 203.951477,190.527908 209.614502,190.147369 
	C215.246826,189.768890 220.959763,190.589859 226.825455,191.208939 
z"/>
<path fill="#303038" opacity="1.000000" stroke="none" 
	d="
M198.861801,183.400986 
	C201.374268,179.138107 204.312576,175.048111 207.556396,170.789032 
	C207.907379,172.439255 207.989761,174.258545 207.991852,176.077911 
	C207.999863,183.070282 206.638138,184.233856 198.861801,183.400986 
z"/>
<path fill="#303038" opacity="1.000000" stroke="none" 
	d="
M243.974594,200.824249 
	C243.522400,198.322815 243.373932,195.523270 243.130386,192.291260 
	C242.900848,190.489853 242.766388,189.120895 242.631927,187.751953 
	C245.749832,191.765106 245.362122,196.111542 243.974594,200.824249 
z"/>
<path fill="#2D2D35" opacity="1.000000" stroke="none" 
	d="
M240.991699,111.563889 
	C238.944031,111.624992 236.896362,111.686096 234.419464,111.647987 
	C235.828064,106.708008 239.141800,108.059937 242.467316,109.807602 
	C241.965363,110.581520 241.478531,111.072708 240.991699,111.563889 
z"/>
<path fill="#303038" opacity="1.000000" stroke="none" 
	d="
M241.042374,125.908379 
	C240.995163,125.360443 241.269287,124.828064 241.817276,124.158127 
	C242.495239,124.381165 242.899323,124.741760 243.303391,125.102364 
	C242.656830,125.376221 242.010254,125.650078 241.042374,125.908379 
z"/>
<path fill="#303038" opacity="1.000000" stroke="none" 
	d="
M241.266754,111.691353 
	C241.478531,111.072708 241.965363,110.581520 242.725494,110.045776 
	C242.839615,110.519951 242.680450,111.038673 242.327789,111.752518 
	C241.936813,111.904694 241.739319,111.861755 241.266754,111.691353 
z"/>
<path fill="#303038" opacity="1.000000" stroke="none" 
	d="
M75.384758,133.151154 
	C75.097740,133.959885 74.810730,134.768616 73.940094,135.871613 
	C73.011047,138.013657 72.665611,139.861435 72.320183,141.709198 
	C71.822807,149.533661 71.282455,157.355774 70.858498,165.184219 
	C70.753517,167.122665 71.026100,169.081573 71.170746,171.473358 
	C70.468033,173.373596 69.829437,174.902466 68.944565,176.272232 
	C67.741753,178.134186 66.666931,180.486771 64.901695,181.398560 
	C64.068413,181.828964 61.741230,179.418549 60.117725,178.257843 
	C55.659992,175.070847 53.977570,170.120926 51.996315,165.369507 
	C51.687168,164.628113 51.419296,163.850632 51.274406,163.063690 
	C51.000290,161.574860 50.829296,160.067032 50.615456,158.567108 
	C48.883179,159.127029 47.150906,159.686951 44.902130,160.413834 
	C44.697567,160.192535 43.473652,159.464813 43.517624,158.824112 
	C43.974625,152.165115 38.562393,148.050827 36.577152,142.458786 
	C34.423100,136.391235 31.165216,130.649780 29.605335,124.459526 
	C28.513235,120.125618 29.463228,115.277115 29.995474,110.646385 
	C30.847929,113.586243 31.206108,116.538155 31.564285,119.490067 
	C32.020409,119.600304 32.476532,119.710541 32.932655,119.820778 
	C34.221653,117.801453 37.091927,114.942574 36.539013,113.901176 
	C33.326801,107.851028 38.224331,104.405617 40.110798,99.993675 
	C40.526752,99.020874 40.496483,97.857269 40.787979,96.067558 
	C33.713608,98.304878 35.146271,93.528671 35.000282,90.000893 
	C36.806526,90.210266 38.657967,90.767014 40.407360,90.539421 
	C42.504948,90.266533 44.650124,89.585747 46.533901,88.614555 
	C49.806805,86.927185 52.896564,84.884117 56.059414,82.984047 
	C56.966316,82.439232 58.494423,81.969460 58.597214,81.292175 
	C58.720802,80.477905 57.668705,79.449219 57.049431,78.566833 
	C56.176548,77.323090 55.233711,76.128456 54.320786,74.912819 
	C55.721630,73.909653 56.991707,72.394051 58.547253,71.997093 
	C63.705681,70.680717 68.991180,69.519753 72.921494,72.992241 
	C76.802002,69.631218 80.332176,66.465080 84.022537,63.498188 
	C84.555862,63.069416 86.487579,63.293022 86.700562,63.733219 
	C87.880692,66.172325 89.120094,68.711266 89.527824,71.341774 
	C89.734077,72.672432 88.231598,74.267960 87.230484,76.292068 
	C89.379143,77.553375 91.524467,78.812721 94.336983,80.463722 
	C94.336983,78.501831 94.145386,77.407547 94.379723,76.413696 
	C94.779549,74.717972 95.242645,72.956604 96.149132,71.519188 
	C96.367912,71.172279 99.115189,71.616623 99.499825,72.337402 
	C100.428116,74.076965 101.725182,77.015045 100.963318,78.016212 
	C97.901123,82.040253 100.365974,83.295700 103.281639,85.287430 
	C105.248726,86.631165 106.395256,89.125404 108.094406,90.930313 
	C109.184433,92.088165 110.723900,93.810638 111.856979,93.666710 
	C113.026161,93.518204 114.551201,91.534920 114.827530,90.138107 
	C115.193336,88.289017 114.203522,86.206299 114.358910,84.269112 
	C114.466034,82.933563 115.526741,81.674500 116.161270,80.381248 
	C117.376289,80.988937 118.709625,81.440277 119.774689,82.246155 
	C120.954567,83.138924 121.813904,84.443665 122.945801,85.413872 
	C125.570412,87.663567 126.733368,89.591583 123.472328,92.597260 
	C121.488327,94.425880 120.330215,97.048393 123.266869,99.911110 
	C128.014572,104.539246 127.818832,104.740036 121.860756,108.965996 
	C120.862625,109.450783 120.430481,109.729462 119.998344,110.008141 
	C111.815071,110.856735 103.216667,110.421722 95.559776,112.897964 
	C87.109032,115.630943 80.531204,122.077454 76.190208,130.896179 
	C75.547829,131.817490 75.466293,132.484329 75.384758,133.151154 
M73.828995,103.049011 
	C67.622993,102.862503 60.906170,101.463692 58.236912,109.656677 
	C58.150955,109.920494 57.740170,110.080147 57.477852,110.284569 
	C55.072418,112.159096 53.638729,114.834221 56.134750,117.000534 
	C58.964329,119.456352 60.363953,116.475845 62.292290,114.479408 
	C64.031425,112.678848 67.015854,111.577599 69.572083,111.305748 
	C70.667908,111.189209 72.578598,113.756889 73.233017,115.447884 
	C74.870613,119.679329 77.372765,118.702293 80.307480,117.279572 
	C76.715454,111.561905 72.726395,106.954399 65.107536,109.423103 
	C64.797981,109.523407 64.383179,109.649849 64.137817,109.525856 
	C63.590023,109.249016 62.687279,108.797539 62.705975,108.460274 
	C62.744308,107.769028 63.116291,106.837456 63.662491,106.477066 
	C66.323662,104.721169 74.759384,106.476974 76.974197,108.863464 
	C78.740944,110.767159 80.746506,112.516296 82.896591,113.961250 
	C83.663391,114.476585 85.166145,113.896797 86.332970,113.816895 
	C86.051117,112.667381 86.153999,111.004845 85.421852,110.455742 
	C81.960510,107.859840 78.270859,105.568352 73.828995,103.049011 
z"/>
<path fill="#2D2D37" opacity="1.000000" stroke="none" 
	d="
M34.832527,89.727806 
	C35.146271,93.528671 33.713608,98.304878 40.787979,96.067558 
	C40.496483,97.857269 40.526752,99.020874 40.110798,99.993675 
	C38.224331,104.405617 33.326801,107.851028 36.539013,113.901176 
	C37.091927,114.942574 34.221653,117.801453 32.932655,119.820778 
	C32.476532,119.710541 32.020409,119.600304 31.564285,119.490067 
	C31.206108,116.538155 30.847929,113.586243 30.245020,110.317390 
	C30.355223,104.470947 30.515661,98.917725 31.185387,93.426613 
	C31.382473,91.810692 30.159540,87.767097 34.832527,89.727806 
z"/>
<path fill="#303038" opacity="1.000000" stroke="none" 
	d="
M153.914490,73.793182 
	C156.237503,73.697929 158.245895,73.820427 161.014359,73.989288 
	C158.141357,77.452286 155.928741,80.119301 153.502991,83.043228 
	C149.973938,79.533539 150.443878,76.729019 153.914490,73.793182 
z"/>
<path fill="#2C2C35" opacity="1.000000" stroke="none" 
	d="
M226.929230,90.429291 
	C229.574463,91.626564 229.671707,92.865273 226.365433,96.528214 
	C226.486130,94.593231 226.606827,92.658249 226.929230,90.429291 
z"/>
<path fill="#303038" opacity="1.000000" stroke="none" 
	d="
M220.900940,111.278038 
	C219.284454,111.627365 217.558014,111.693230 215.409729,111.659126 
	C216.665970,108.736816 218.605331,108.599823 220.900940,111.278038 
z"/>
<path fill="#303038" opacity="1.000000" stroke="none" 
	d="
M184.423126,61.533165 
	C183.573914,61.141945 183.011703,60.617451 182.449509,60.092957 
	C183.119797,59.806736 183.790085,59.520519 184.460373,59.234306 
	C184.543640,59.956165 184.626907,60.678028 184.423126,61.533165 
z"/>
<path fill="#2C2C35" opacity="1.000000" stroke="none" 
	d="
M227.027008,102.761543 
	C227.421982,103.563347 227.534256,104.358459 227.646530,105.153564 
	C227.264023,105.170219 226.881531,105.186867 226.499023,105.203522 
	C226.580780,104.387291 226.662552,103.571068 227.027008,102.761543 
z"/>
<path fill="#2C2C35" opacity="1.000000" stroke="none" 
	d="
M67.989578,196.495758 
	C68.867645,196.486938 69.545296,196.669495 70.222939,196.852066 
	C70.095001,197.118225 69.871277,197.623428 69.852936,197.616089 
	C69.153282,197.335693 68.472473,197.008301 67.989578,196.495758 
z"/>
<path fill="#58595D" opacity="1.000000" stroke="none" 
	d="
M120.262054,110.193695 
	C120.430481,109.729462 120.862625,109.450783 121.554153,109.129929 
	C122.153625,109.443748 122.493698,109.799751 122.933914,110.380829 
	C122.197952,110.530350 121.361855,110.454803 120.262054,110.193695 
z"/>
<path fill="#303038" opacity="1.000000" stroke="none" 
	d="
M145.353775,81.714272 
	C145.221832,82.005699 144.964676,82.163628 144.707504,82.321564 
	C144.881180,82.074623 145.054855,81.827698 145.353775,81.714272 
z"/>
<path fill="#2C2C35" opacity="1.000000" stroke="none" 
	d="
M76.277321,184.992599 
	C76.822899,185.293060 77.124176,185.780869 77.472275,186.554184 
	C77.023735,186.286438 76.528374,185.733200 76.277321,184.992599 
z"/>
<path fill="#2C2C35" opacity="1.000000" stroke="none" 
	d="
M83.284218,194.520508 
	C83.828201,194.523026 84.337723,194.850449 84.976944,195.457397 
	C84.487679,195.439758 83.868721,195.142578 83.284218,194.520508 
z"/>
<path fill="#303038" opacity="1.000000" stroke="none" 
	d="
M135.646210,91.285767 
	C135.778122,90.994331 136.035294,90.836395 136.292465,90.678467 
	C136.118790,90.925400 135.945114,91.172333 135.646210,91.285767 
z"/>
<path fill="#323239" opacity="1.000000" stroke="none" 
	d="
M72.570633,141.420471 
	C72.665611,139.861435 73.011047,138.013657 73.693649,136.082916 
	C73.627563,137.710556 73.224327,139.421158 72.570633,141.420471 
z"/>
<path fill="#323239" opacity="1.000000" stroke="none" 
	d="
M75.608353,132.960358 
	C75.466293,132.484329 75.547829,131.817490 75.924156,131.115051 
	C76.089951,131.642822 75.960953,132.206177 75.608353,132.960358 
z"/>
<path fill="#302F38" opacity="1.000000" stroke="none" 
	d="
M74.245789,103.108681 
	C78.270859,105.568352 81.960510,107.859840 85.421852,110.455742 
	C86.153999,111.004845 86.051117,112.667381 86.332970,113.816895 
	C85.166145,113.896797 83.663391,114.476585 82.896591,113.961250 
	C80.746506,112.516296 78.740944,110.767159 76.974197,108.863464 
	C74.759384,106.476974 66.323662,104.721169 63.662491,106.477066 
	C63.116291,106.837456 62.744308,107.769028 62.705975,108.460274 
	C62.687279,108.797539 63.590023,109.249016 64.137817,109.525856 
	C64.383179,109.649849 64.797981,109.523407 65.107536,109.423103 
	C72.726395,106.954399 76.715454,111.561905 80.307480,117.279572 
	C77.372765,118.702293 74.870613,119.679329 73.233017,115.447884 
	C72.578598,113.756889 70.667908,111.189209 69.572083,111.305748 
	C67.015854,111.577599 64.031425,112.678848 62.292290,114.479408 
	C60.363953,116.475845 58.964329,119.456352 56.134750,117.000534 
	C53.638729,114.834221 55.072418,112.159096 57.477852,110.284569 
	C57.740170,110.080147 58.150955,109.920494 58.236912,109.656677 
	C60.906170,101.463692 67.622993,102.862503 74.245789,103.108681 
z"/>
</svg>